<svg width="230" height="46" viewBox="0 0 230 46" fill="none" xmlns="http://www.w3.org/2000/svg">
<path fill-rule="evenodd" clip-rule="evenodd" d="M13 30.5L23 43.5V12.5L13 0V30.5ZM11 31.5L21 44L5 37.5V6L11 9V31.5ZM18.5 45.5H0V14H3V39.5L18.5 45.5ZM35 30.5L25 43.5V12.5L35 0V30.5ZM37 31.5L27 44L43 37.5V6L37 9V31.5ZM29.5 45.5H48V14H45V39.5L29.5 45.5Z" fill="#EF2B2D"/>
<path d="M74.11 14.25H70.568V6.83H67.432L67.418 7.642C67.418 8.35133 67.3993 8.97667 67.362 9.518C67.334 10.05 67.2687 10.596 67.166 11.156C66.9793 12.1733 66.5033 12.99 65.738 13.606C64.982 14.222 63.9227 14.53 62.56 14.53V11.8C62.924 11.7253 63.2087 11.562 63.414 11.31C63.6287 11.0487 63.792 10.6333 63.904 10.064C63.988 9.60667 64.03 8.566 64.03 6.942L64.016 4.086L74.11 4.1V14.25ZM85.8038 4.086C85.7665 4.18867 85.7198 4.30533 85.6638 4.436C85.6078 4.55733 85.5518 4.69733 85.4958 4.856C84.9825 6.12533 84.5065 7.26867 84.0678 8.286C83.6385 9.294 83.1252 10.442 82.5278 11.73C82.0052 12.85 81.2398 13.746 80.2318 14.418C79.2332 15.0993 77.9732 15.426 76.4518 15.398C76.2558 14.586 76.0972 13.9747 75.9758 13.564C75.8638 13.144 75.7098 12.7147 75.5138 12.276C76.0645 12.3973 76.5732 12.458 77.0398 12.458C77.4972 12.458 77.9078 12.3973 78.2718 12.276C77.5998 10.5493 76.4005 7.81933 74.6738 4.086H78.1598L80.3858 9.322L80.7778 8.384C81.7485 6.07867 82.2945 4.646 82.4158 4.086H85.8038ZM97.7825 4.086C97.7171 5.262 97.6845 6.95133 97.6845 9.154C97.6845 11.3567 97.7171 13.046 97.7825 14.222H94.2545L94.2965 11.688C93.2605 12.3973 92.0565 12.752 90.6845 12.752C89.2285 12.752 88.1831 12.4113 87.5485 11.73C86.9231 11.0487 86.6105 10.0593 86.6105 8.762V7.11C86.6105 5.84067 86.5871 4.83267 86.5405 4.086H89.8585C89.8025 5.458 89.7745 6.73667 89.7745 7.922C89.7745 8.398 89.8398 8.78067 89.9705 9.07C90.1105 9.35933 90.3391 9.574 90.6565 9.714C90.9831 9.854 91.4358 9.924 92.0145 9.924C92.9571 9.924 93.7225 9.63 94.3105 9.042V7.67C94.3105 5.99933 94.2918 4.80467 94.2545 4.086H97.7825ZM111.612 4.086C111.547 5.66333 111.514 7.35733 111.514 9.168C111.514 10.9787 111.547 12.6727 111.612 14.25H98.8998C98.9745 12.4393 99.0118 10.7453 99.0118 9.168C99.0118 7.59067 98.9745 5.89667 98.8998 4.086H102.19V11.422H103.814V4.086H106.852V11.422H108.322V4.086H111.612ZM121.57 14.25C121.392 13.718 121.154 13.0507 120.856 12.248H116.39L115.69 14.25H112.176L116.096 4.086H121.248L125.196 14.25H121.57ZM120.058 10.064C119.703 9.084 119.339 8.104 118.966 7.124L118.63 6.214C118.303 7.06333 117.822 8.34667 117.188 10.064H120.058ZM137.185 4.086C137.119 5.66333 137.087 7.35733 137.087 9.168C137.087 10.9787 137.119 12.6727 137.185 14.25H133.881V11.002H131.823C130.936 12.402 130.287 13.4847 129.877 14.25H126.069L128.337 11.1C128.383 11.016 128.463 10.8993 128.575 10.75C127.613 10.498 126.932 10.092 126.531 9.532C126.139 8.972 125.943 8.286 125.943 7.474C125.943 6.438 126.316 5.61667 127.063 5.01C127.809 4.40333 129.125 4.1 131.011 4.1H133.881V4.086H137.185ZM133.881 8.384V6.788H131.991C131.188 6.788 130.581 6.81133 130.171 6.858C129.76 6.90467 129.48 6.984 129.331 7.096C129.181 7.208 129.107 7.36667 129.107 7.572C129.107 7.78667 129.186 7.95 129.345 8.062C129.503 8.174 129.783 8.258 130.185 8.314C130.595 8.36067 131.197 8.384 131.991 8.384H133.881ZM71.576 24.392C72.1267 24.84 72.5467 25.3393 72.836 25.89C73.1347 26.4313 73.424 27.0987 73.704 27.892C73.9373 28.536 74.124 28.9887 74.264 29.25H70.148C70.092 29.0913 70.0173 28.816 69.924 28.424C69.8307 27.9947 69.728 27.6353 69.616 27.346C69.5133 27.0567 69.364 26.8047 69.168 26.59C68.8507 26.254 68.454 26.0393 67.978 25.946C67.5113 25.8433 66.8673 25.792 66.046 25.792V29.25H62.56C62.6347 27.4393 62.672 25.7453 62.672 24.168C62.672 22.5907 62.6347 20.8967 62.56 19.086H66.046V22.74C66.1393 22.7493 66.2793 22.754 66.466 22.754C67.922 21.3167 69.0047 20.094 69.714 19.086H74.25L69.896 23.426C70.512 23.6687 71.072 23.9907 71.576 24.392ZM81.6142 29.39C79.4769 29.39 77.9042 28.928 76.8962 28.004C75.8882 27.0707 75.3842 25.764 75.3842 24.084C75.3842 22.4227 75.8836 21.1253 76.8822 20.192C77.8902 19.2587 79.4676 18.792 81.6142 18.792C83.7702 18.792 85.3476 19.2587 86.3462 20.192C87.3542 21.1253 87.8582 22.4227 87.8582 24.084C87.8582 25.7733 87.3589 27.08 86.3602 28.004C85.3616 28.928 83.7796 29.39 81.6142 29.39ZM81.6142 26.534C82.6502 26.534 83.3969 26.338 83.8542 25.946C84.3116 25.5447 84.5402 24.924 84.5402 24.084C84.5402 23.2627 84.3116 22.6513 83.8542 22.25C83.3969 21.8487 82.6502 21.648 81.6142 21.648C80.5876 21.648 79.8456 21.8487 79.3882 22.25C78.9309 22.6513 78.7022 23.2627 78.7022 24.084C78.7022 24.9147 78.9309 25.5307 79.3882 25.932C79.8456 26.3333 80.5876 26.534 81.6142 26.534ZM95.3301 19.1C97.1874 19.1 98.4801 19.4313 99.2081 20.094C99.9361 20.7473 100.3 21.6713 100.3 22.866C100.3 23.6873 100.155 24.3873 99.8661 24.966C99.5767 25.5353 99.0681 25.9833 98.3401 26.31C97.6121 26.6273 96.6087 26.786 95.3301 26.786H92.4181V29.25H88.9741C89.0487 27.4393 89.0861 25.7453 89.0861 24.168C89.0861 22.5907 89.0487 20.8967 88.9741 19.086H92.4181V19.1H95.3301ZM94.3501 24.084C95.1247 24.084 95.7034 24.056 96.0861 24C96.4781 23.9347 96.7487 23.8227 96.8981 23.664C97.0567 23.5053 97.1361 23.272 97.1361 22.964C97.1361 22.656 97.0614 22.4273 96.9121 22.278C96.7721 22.1193 96.5061 22.012 96.1141 21.956C95.7314 21.9 95.1434 21.872 94.3501 21.872H92.4181V24.084H94.3501ZM112.727 19.086C112.662 20.6633 112.629 22.3573 112.629 24.168C112.629 25.9787 112.662 27.6727 112.727 29.25H109.437V21.914H104.705V29.25H101.415C101.49 27.4393 101.527 25.7453 101.527 24.168C101.527 22.5907 101.49 20.8967 101.415 19.086H112.727ZM120.073 29.39C117.936 29.39 116.363 28.928 115.355 28.004C114.347 27.0707 113.843 25.764 113.843 24.084C113.843 22.4227 114.343 21.1253 115.341 20.192C116.349 19.2587 117.927 18.792 120.073 18.792C122.229 18.792 123.807 19.2587 124.805 20.192C125.813 21.1253 126.317 22.4227 126.317 24.084C126.317 25.7733 125.818 27.08 124.819 28.004C123.821 28.928 122.239 29.39 120.073 29.39ZM120.073 26.534C121.109 26.534 121.856 26.338 122.313 25.946C122.771 25.5447 122.999 24.924 122.999 24.084C122.999 23.2627 122.771 22.6513 122.313 22.25C121.856 21.8487 121.109 21.648 120.073 21.648C119.047 21.648 118.305 21.8487 117.847 22.25C117.39 22.6513 117.161 23.2627 117.161 24.084C117.161 24.9147 117.39 25.5307 117.847 25.932C118.305 26.3333 119.047 26.534 120.073 26.534ZM133.789 19.1C135.646 19.1 136.939 19.4313 137.667 20.094C138.395 20.7473 138.759 21.6713 138.759 22.866C138.759 23.6873 138.614 24.3873 138.325 24.966C138.036 25.5353 137.527 25.9833 136.799 26.31C136.071 26.6273 135.068 26.786 133.789 26.786H130.877V29.25H127.433C127.508 27.4393 127.545 25.7453 127.545 24.168C127.545 22.5907 127.508 20.8967 127.433 19.086H130.877V19.1H133.789ZM132.809 24.084C133.584 24.084 134.162 24.056 134.545 24C134.937 23.9347 135.208 23.8227 135.357 23.664C135.516 23.5053 135.595 23.272 135.595 22.964C135.595 22.656 135.52 22.4273 135.371 22.278C135.231 22.1193 134.965 22.012 134.573 21.956C134.19 21.9 133.602 21.872 132.809 21.872H130.877V24.084H132.809ZM148.708 29.25C148.531 28.718 148.293 28.0507 147.994 27.248H143.528L142.828 29.25H139.314L143.234 19.086H148.386L152.334 29.25H148.708ZM147.196 25.064C146.842 24.084 146.478 23.104 146.104 22.124L145.768 21.214C145.442 22.0633 144.961 23.3467 144.326 25.064H147.196ZM165.107 22.026C163.642 21.9793 162.219 21.9513 160.837 21.942V29.25H157.337V21.942C155.947 21.9513 154.528 21.9793 153.081 22.026V19.086H165.107V22.026ZM169.664 19.1L169.426 26.954L172.828 19.1H177.98C177.914 20.6773 177.882 22.3667 177.882 24.168C177.882 25.9787 177.914 27.6727 177.98 29.25H174.382L174.634 21.606L171.246 29.25H166.234C166.308 27.4393 166.346 25.7453 166.346 24.168C166.346 22.6 166.308 20.9107 166.234 19.1H169.664ZM187.303 24.196C189.431 24.196 190.495 24.8727 190.495 26.226C190.495 26.8607 190.35 27.402 190.061 27.85C189.772 28.2887 189.254 28.634 188.507 28.886C187.76 29.1287 186.724 29.25 185.399 29.25H179.099C179.174 27.4393 179.211 25.7453 179.211 24.168C179.211 22.5907 179.174 20.8967 179.099 19.086H182.389V19.1H185.371C186.528 19.1 187.438 19.198 188.101 19.394C188.773 19.5807 189.244 19.856 189.515 20.22C189.795 20.584 189.935 21.046 189.935 21.606C189.935 22.1753 189.734 22.684 189.333 23.132C188.941 23.5707 188.264 23.9253 187.303 24.196ZM182.389 21.648V22.95H185.077C185.656 22.95 186.057 22.8987 186.281 22.796C186.514 22.6933 186.631 22.5067 186.631 22.236C186.631 22.0213 186.51 21.872 186.267 21.788C186.034 21.6947 185.637 21.648 185.077 21.648H182.389ZM185.077 26.688C185.562 26.688 185.931 26.6693 186.183 26.632C186.444 26.5853 186.631 26.5107 186.743 26.408C186.855 26.296 186.911 26.1467 186.911 25.96C186.911 25.7173 186.776 25.5447 186.505 25.442C186.244 25.33 185.768 25.274 185.077 25.274H182.389V26.688H185.077ZM203.341 19.086C203.275 20.6633 203.243 22.3573 203.243 24.168C203.243 25.9787 203.275 27.6727 203.341 29.25H200.051V25.442H194.899V29.25H191.609C191.683 27.4393 191.721 25.7453 191.721 24.168C191.721 22.5907 191.683 20.8967 191.609 19.086H194.899V22.894H200.051V19.086H203.341ZM213.294 29.25C213.117 28.718 212.879 28.0507 212.58 27.248H208.114L207.414 29.25H203.9L207.82 19.086H212.972L216.92 29.25H213.294ZM211.782 25.064C211.428 24.084 211.064 23.104 210.69 22.124L210.354 21.214C210.028 22.0633 209.547 23.3467 208.912 25.064H211.782ZM228.909 19.086C228.844 20.6633 228.811 22.3573 228.811 24.168C228.811 25.9787 228.844 27.6727 228.909 29.25H225.605V26.002H223.547C222.661 27.402 222.012 28.4847 221.601 29.25H217.793L220.061 26.1C220.108 26.016 220.187 25.8993 220.299 25.75C219.338 25.498 218.657 25.092 218.255 24.532C217.863 23.972 217.667 23.286 217.667 22.474C217.667 21.438 218.041 20.6167 218.787 20.01C219.534 19.4033 220.85 19.1 222.735 19.1H225.605V19.086H228.909ZM225.605 23.384V21.788H223.715C222.913 21.788 222.306 21.8113 221.895 21.858C221.485 21.9047 221.205 21.984 221.055 22.096C220.906 22.208 220.831 22.3667 220.831 22.572C220.831 22.7867 220.911 22.95 221.069 23.062C221.228 23.174 221.508 23.258 221.909 23.314C222.32 23.3607 222.922 23.384 223.715 23.384H225.605ZM71.576 39.392C72.1267 39.84 72.5467 40.3393 72.836 40.89C73.1347 41.4313 73.424 42.0987 73.704 42.892C73.9373 43.536 74.124 43.9887 74.264 44.25H70.148C70.092 44.0913 70.0173 43.816 69.924 43.424C69.8307 42.9947 69.728 42.6353 69.616 42.346C69.5133 42.0567 69.364 41.8047 69.168 41.59C68.8507 41.254 68.454 41.0393 67.978 40.946C67.5113 40.8433 66.8673 40.792 66.046 40.792V44.25H62.56C62.6347 42.4393 62.672 40.7453 62.672 39.168C62.672 37.5907 62.6347 35.8967 62.56 34.086H66.046V37.74C66.1393 37.7493 66.2793 37.754 66.466 37.754C67.922 36.3167 69.0047 35.094 69.714 34.086H74.25L69.896 38.426C70.512 38.6687 71.072 38.9907 71.576 39.392ZM87.1162 34.086C87.0509 35.6633 87.0182 37.3573 87.0182 39.168C87.0182 40.9787 87.0509 42.6727 87.1162 44.25H83.8262V40.442H78.6742V44.25H75.3842C75.4589 42.4393 75.4962 40.7453 75.4962 39.168C75.4962 37.5907 75.4589 35.8967 75.3842 34.086H78.6742V37.894H83.8262V34.086H87.1162ZM91.6658 34.1L91.4278 41.954L94.8298 34.1H99.9818C99.9164 35.6773 99.8838 37.3667 99.8838 39.168C99.8838 40.9787 99.9164 42.6727 99.9818 44.25H96.3838L96.6358 36.606L93.2478 44.25H88.2358C88.3104 42.4393 88.3478 40.7453 88.3478 39.168C88.3478 37.6 88.3104 35.9107 88.2358 34.1H91.6658ZM104.517 44.25H101.101C101.176 42.43 101.213 40.736 101.213 39.168C101.213 37.5907 101.176 35.8967 101.101 34.086H111.013C110.994 34.8513 110.985 35.4347 110.985 35.836C110.985 36.3307 110.99 36.704 110.999 36.956H104.517V44.25ZM120.968 44.25C120.791 43.718 120.553 43.0507 120.254 42.248H115.788L115.088 44.25H111.574L115.494 34.086H120.646L124.594 44.25H120.968ZM119.456 40.064C119.102 39.084 118.738 38.104 118.364 37.124L118.028 36.214C117.702 37.0633 117.221 38.3467 116.586 40.064H119.456ZM131.221 40.848H125.201V38.118H131.221V40.848ZM135.719 41.8C138.752 41.632 141.104 41.4453 142.775 41.24C142.616 41.7253 142.495 42.2387 142.411 42.78C142.327 43.3213 142.285 43.8113 142.285 44.25H132.275L132.261 43.956C132.261 43.0413 132.527 42.248 133.059 41.576C133.6 40.904 134.351 40.2833 135.313 39.714C135.593 39.546 136.031 39.3313 136.629 39.07C137.403 38.734 138.001 38.44 138.421 38.188C138.841 37.9267 139.051 37.67 139.051 37.418C139.051 37.1007 138.92 36.8487 138.659 36.662C138.397 36.4753 137.991 36.382 137.441 36.382C136.834 36.382 136.372 36.536 136.055 36.844C135.747 37.152 135.593 37.544 135.593 38.02C135.593 38.1693 135.607 38.3233 135.635 38.482C134.459 38.3327 133.315 38.23 132.205 38.174C132.205 37.3807 132.41 36.6667 132.821 36.032C133.241 35.388 133.866 34.8793 134.697 34.506C135.537 34.1327 136.563 33.946 137.777 33.946C138.887 33.946 139.811 34.1 140.549 34.408C141.295 34.7067 141.841 35.0893 142.187 35.556C142.541 36.0133 142.719 36.4847 142.719 36.97C142.719 37.53 142.593 38.0107 142.341 38.412C142.098 38.8133 141.743 39.1727 141.277 39.49C140.819 39.798 140.203 40.134 139.429 40.498C139.317 40.554 139.135 40.6193 138.883 40.694C138.631 40.7593 138.472 40.8013 138.407 40.82C137.744 41.016 137.217 41.1793 136.825 41.31C136.433 41.4407 136.064 41.604 135.719 41.8ZM149.76 44.39C147.753 44.39 146.274 43.928 145.322 43.004C144.37 42.08 143.894 40.7967 143.894 39.154C143.894 37.5207 144.37 36.2467 145.322 35.332C146.283 34.408 147.763 33.946 149.76 33.946C151.757 33.946 153.232 34.408 154.184 35.332C155.136 36.2467 155.612 37.5207 155.612 39.154C155.612 40.7967 155.136 42.08 154.184 43.004C153.232 43.928 151.757 44.39 149.76 44.39ZM149.774 41.94C150.633 41.94 151.258 41.6787 151.65 41.156C152.042 40.624 152.238 39.9567 152.238 39.154C152.238 38.3607 152.042 37.7027 151.65 37.18C151.258 36.648 150.633 36.382 149.774 36.382C148.887 36.382 148.243 36.648 147.842 37.18C147.45 37.7027 147.254 38.3607 147.254 39.154C147.254 39.9473 147.45 40.61 147.842 41.142C148.243 41.674 148.887 41.94 149.774 41.94ZM160.246 41.8C163.279 41.632 165.631 41.4453 167.302 41.24C167.143 41.7253 167.022 42.2387 166.938 42.78C166.854 43.3213 166.812 43.8113 166.812 44.25H156.802L156.788 43.956C156.788 43.0413 157.054 42.248 157.586 41.576C158.127 40.904 158.879 40.2833 159.84 39.714C160.12 39.546 160.559 39.3313 161.156 39.07C161.931 38.734 162.528 38.44 162.948 38.188C163.368 37.9267 163.578 37.67 163.578 37.418C163.578 37.1007 163.447 36.8487 163.186 36.662C162.925 36.4753 162.519 36.382 161.968 36.382C161.361 36.382 160.899 36.536 160.582 36.844C160.274 37.152 160.12 37.544 160.12 38.02C160.12 38.1693 160.134 38.3233 160.162 38.482C158.986 38.3327 157.843 38.23 156.732 38.174C156.732 37.3807 156.937 36.6667 157.348 36.032C157.768 35.388 158.393 34.8793 159.224 34.506C160.064 34.1327 161.091 33.946 162.304 33.946C163.415 33.946 164.339 34.1 165.076 34.408C165.823 34.7067 166.369 35.0893 166.714 35.556C167.069 36.0133 167.246 36.4847 167.246 36.97C167.246 37.53 167.12 38.0107 166.868 38.412C166.625 38.8133 166.271 39.1727 165.804 39.49C165.347 39.798 164.731 40.134 163.956 40.498C163.844 40.554 163.662 40.6193 163.41 40.694C163.158 40.7593 162.999 40.8013 162.934 40.82C162.271 41.016 161.744 41.1793 161.352 41.31C160.96 41.4407 160.591 41.604 160.246 41.8ZM174.833 37.096C175.897 37.096 176.789 37.2453 177.507 37.544C178.235 37.8333 178.777 38.23 179.131 38.734C179.495 39.2287 179.677 39.784 179.677 40.4C179.677 41.8 179.187 42.8173 178.207 43.452C177.237 44.0773 175.935 44.39 174.301 44.39C172.929 44.39 171.721 44.1613 170.675 43.704C169.639 43.2373 168.888 42.458 168.421 41.366C168.935 41.2913 169.495 41.17 170.101 41.002C170.717 40.834 171.273 40.6613 171.767 40.484C171.963 40.8853 172.239 41.1793 172.593 41.366C172.948 41.5433 173.424 41.632 174.021 41.632C174.656 41.632 175.179 41.5293 175.589 41.324C176.009 41.1187 176.219 40.834 176.219 40.47C176.219 40.0967 176.037 39.784 175.673 39.532C175.309 39.28 174.754 39.154 174.007 39.154C173.522 39.154 173.079 39.2427 172.677 39.42C172.276 39.588 171.987 39.8307 171.809 40.148H168.575C168.799 39.1867 168.995 38.1507 169.163 37.04C169.341 35.9293 169.448 34.9447 169.485 34.086H179.313V36.802C178.277 36.7367 177.297 36.6993 176.373 36.69C175.459 36.6713 174.175 36.662 172.523 36.662L172.383 37.446C173.093 37.2127 173.909 37.096 174.833 37.096Z" fill="#EF2B2D"/>
</svg>
