<svg width="231" height="215" viewBox="0 0 231 215" fill="none" xmlns="http://www.w3.org/2000/svg">
<mask id="mask0_2873_1753" style="mask-type:alpha" maskUnits="userSpaceOnUse" x="0" y="0" width="231" height="215">
<rect width="231" height="215" fill="white"/>
</mask>
<g mask="url(#mask0_2873_1753)">
<path d="M158.836 168.028H152.752V173.968H147.208V168.028H141.088V162.772H147.208V156.832H152.752V162.772H158.836V168.028ZM172.118 152.8V178H164.99V158.308H160.31V152.8H172.118ZM194.052 164.716C195.204 165.388 196.092 166.216 196.716 167.2C197.34 168.184 197.652 169.312 197.652 170.584C197.652 172.168 197.196 173.56 196.284 174.76C195.372 175.96 194.088 176.884 192.432 177.532C190.776 178.18 188.868 178.504 186.708 178.504C184.548 178.504 182.64 178.18 180.984 177.532C179.328 176.884 178.044 175.96 177.132 174.76C176.22 173.56 175.764 172.168 175.764 170.584C175.764 169.312 176.076 168.184 176.7 167.2C177.324 166.216 178.212 165.388 179.364 164.716C178.5 164.116 177.828 163.384 177.348 162.52C176.892 161.656 176.664 160.696 176.664 159.64C176.664 158.176 177.084 156.892 177.924 155.788C178.764 154.66 179.94 153.796 181.452 153.196C182.988 152.596 184.74 152.296 186.708 152.296C188.676 152.296 190.416 152.596 191.928 153.196C193.464 153.796 194.652 154.66 195.492 155.788C196.332 156.892 196.752 158.176 196.752 159.64C196.752 160.696 196.512 161.656 196.032 162.52C195.576 163.384 194.916 164.116 194.052 164.716ZM186.708 157.3C185.82 157.3 185.1 157.54 184.548 158.02C183.996 158.476 183.72 159.124 183.72 159.964C183.72 160.78 183.984 161.428 184.512 161.908C185.064 162.364 185.796 162.592 186.708 162.592C187.62 162.592 188.352 162.364 188.904 161.908C189.456 161.428 189.732 160.78 189.732 159.964C189.732 159.124 189.456 158.476 188.904 158.02C188.352 157.54 187.62 157.3 186.708 157.3ZM186.708 173.5C187.86 173.5 188.772 173.224 189.444 172.672C190.14 172.096 190.488 171.328 190.488 170.368C190.488 169.408 190.14 168.652 189.444 168.1C188.772 167.524 187.86 167.236 186.708 167.236C185.556 167.236 184.632 167.524 183.936 168.1C183.264 168.652 182.928 169.408 182.928 170.368C182.928 171.328 183.264 172.096 183.936 172.672C184.632 173.224 185.556 173.5 186.708 173.5Z" fill="#EF2B2D"/>
<circle opacity="0.6" cx="168.5" cy="168.5" r="61" stroke="#EF2B2D"/>
<circle opacity="0.4" cx="168.5" cy="168.5" r="110" stroke="#EF2B2D"/>
<circle opacity="0.2" cx="168.5" cy="168.5" r="168" stroke="#EF2B2D"/>
</g>
</svg>
