<svg width="230" height="46" viewBox="0 0 230 46" fill="none" xmlns="http://www.w3.org/2000/svg">
<path fill-rule="evenodd" clip-rule="evenodd" d="M13 30.75L23 43.75V12.75L13 0.25V30.75ZM11 31.75L21 44.25L5 37.75V6.25L11 9.25V31.75ZM18.5 45.75H0V14.25H3V39.75L18.5 45.75ZM35 30.75L25 43.75V12.75L35 0.25V30.75ZM37 31.75L27 44.25L43 37.75V6.25L37 9.25V31.75ZM29.5 45.75H48V14.25H45V39.75L29.5 45.75Z" fill="white"/>
<path d="M74.11 14.5H70.568V7.08H67.432L67.418 7.892C67.418 8.60133 67.3993 9.22667 67.362 9.768C67.334 10.3 67.2687 10.846 67.166 11.406C66.9793 12.4233 66.5033 13.24 65.738 13.856C64.982 14.472 63.9227 14.78 62.56 14.78V12.05C62.924 11.9753 63.2087 11.812 63.414 11.56C63.6287 11.2987 63.792 10.8833 63.904 10.314C63.988 9.85667 64.03 8.816 64.03 7.192L64.016 4.336L74.11 4.35V14.5ZM85.8038 4.336C85.7665 4.43867 85.7198 4.55533 85.6638 4.686C85.6078 4.80733 85.5518 4.94733 85.4958 5.106C84.9825 6.37533 84.5065 7.51867 84.0678 8.536C83.6385 9.544 83.1252 10.692 82.5278 11.98C82.0052 13.1 81.2398 13.996 80.2318 14.668C79.2332 15.3493 77.9732 15.676 76.4518 15.648C76.2558 14.836 76.0972 14.2247 75.9758 13.814C75.8638 13.394 75.7098 12.9647 75.5138 12.526C76.0645 12.6473 76.5732 12.708 77.0398 12.708C77.4972 12.708 77.9078 12.6473 78.2718 12.526C77.5998 10.7993 76.4005 8.06933 74.6738 4.336H78.1598L80.3858 9.572L80.7778 8.634C81.7485 6.32867 82.2945 4.896 82.4158 4.336H85.8038ZM97.7825 4.336C97.7171 5.512 97.6845 7.20133 97.6845 9.404C97.6845 11.6067 97.7171 13.296 97.7825 14.472H94.2545L94.2965 11.938C93.2605 12.6473 92.0565 13.002 90.6845 13.002C89.2285 13.002 88.1831 12.6613 87.5485 11.98C86.9231 11.2987 86.6105 10.3093 86.6105 9.012V7.36C86.6105 6.09067 86.5871 5.08267 86.5405 4.336H89.8585C89.8025 5.708 89.7745 6.98667 89.7745 8.172C89.7745 8.648 89.8398 9.03067 89.9705 9.32C90.1105 9.60933 90.3391 9.824 90.6565 9.964C90.9831 10.104 91.4358 10.174 92.0145 10.174C92.9571 10.174 93.7225 9.88 94.3105 9.292V7.92C94.3105 6.24933 94.2918 5.05467 94.2545 4.336H97.7825ZM111.612 4.336C111.547 5.91333 111.514 7.60733 111.514 9.418C111.514 11.2287 111.547 12.9227 111.612 14.5H98.8998C98.9745 12.6893 99.0118 10.9953 99.0118 9.418C99.0118 7.84067 98.9745 6.14667 98.8998 4.336H102.19V11.672H103.814V4.336H106.852V11.672H108.322V4.336H111.612ZM121.57 14.5C121.392 13.968 121.154 13.3007 120.856 12.498H116.39L115.69 14.5H112.176L116.096 4.336H121.248L125.196 14.5H121.57ZM120.058 10.314C119.703 9.334 119.339 8.354 118.966 7.374L118.63 6.464C118.303 7.31333 117.822 8.59667 117.188 10.314H120.058ZM137.185 4.336C137.119 5.91333 137.087 7.60733 137.087 9.418C137.087 11.2287 137.119 12.9227 137.185 14.5H133.881V11.252H131.823C130.936 12.652 130.287 13.7347 129.877 14.5H126.069L128.337 11.35C128.383 11.266 128.463 11.1493 128.575 11C127.613 10.748 126.932 10.342 126.531 9.782C126.139 9.222 125.943 8.536 125.943 7.724C125.943 6.688 126.316 5.86667 127.063 5.26C127.809 4.65333 129.125 4.35 131.011 4.35H133.881V4.336H137.185ZM133.881 8.634V7.038H131.991C131.188 7.038 130.581 7.06133 130.171 7.108C129.76 7.15467 129.48 7.234 129.331 7.346C129.181 7.458 129.107 7.61667 129.107 7.822C129.107 8.03667 129.186 8.2 129.345 8.312C129.503 8.424 129.783 8.508 130.185 8.564C130.595 8.61067 131.197 8.634 131.991 8.634H133.881ZM71.576 24.642C72.1267 25.09 72.5467 25.5893 72.836 26.14C73.1347 26.6813 73.424 27.3487 73.704 28.142C73.9373 28.786 74.124 29.2387 74.264 29.5H70.148C70.092 29.3413 70.0173 29.066 69.924 28.674C69.8307 28.2447 69.728 27.8853 69.616 27.596C69.5133 27.3067 69.364 27.0547 69.168 26.84C68.8507 26.504 68.454 26.2893 67.978 26.196C67.5113 26.0933 66.8673 26.042 66.046 26.042V29.5H62.56C62.6347 27.6893 62.672 25.9953 62.672 24.418C62.672 22.8407 62.6347 21.1467 62.56 19.336H66.046V22.99C66.1393 22.9993 66.2793 23.004 66.466 23.004C67.922 21.5667 69.0047 20.344 69.714 19.336H74.25L69.896 23.676C70.512 23.9187 71.072 24.2407 71.576 24.642ZM81.6142 29.64C79.4769 29.64 77.9042 29.178 76.8962 28.254C75.8882 27.3207 75.3842 26.014 75.3842 24.334C75.3842 22.6727 75.8836 21.3753 76.8822 20.442C77.8902 19.5087 79.4676 19.042 81.6142 19.042C83.7702 19.042 85.3476 19.5087 86.3462 20.442C87.3542 21.3753 87.8582 22.6727 87.8582 24.334C87.8582 26.0233 87.3589 27.33 86.3602 28.254C85.3616 29.178 83.7796 29.64 81.6142 29.64ZM81.6142 26.784C82.6502 26.784 83.3969 26.588 83.8542 26.196C84.3116 25.7947 84.5402 25.174 84.5402 24.334C84.5402 23.5127 84.3116 22.9013 83.8542 22.5C83.3969 22.0987 82.6502 21.898 81.6142 21.898C80.5876 21.898 79.8456 22.0987 79.3882 22.5C78.9309 22.9013 78.7022 23.5127 78.7022 24.334C78.7022 25.1647 78.9309 25.7807 79.3882 26.182C79.8456 26.5833 80.5876 26.784 81.6142 26.784ZM95.3301 19.35C97.1874 19.35 98.4801 19.6813 99.2081 20.344C99.9361 20.9973 100.3 21.9213 100.3 23.116C100.3 23.9373 100.155 24.6373 99.8661 25.216C99.5767 25.7853 99.0681 26.2333 98.3401 26.56C97.6121 26.8773 96.6087 27.036 95.3301 27.036H92.4181V29.5H88.9741C89.0487 27.6893 89.0861 25.9953 89.0861 24.418C89.0861 22.8407 89.0487 21.1467 88.9741 19.336H92.4181V19.35H95.3301ZM94.3501 24.334C95.1247 24.334 95.7034 24.306 96.0861 24.25C96.4781 24.1847 96.7487 24.0727 96.8981 23.914C97.0567 23.7553 97.1361 23.522 97.1361 23.214C97.1361 22.906 97.0614 22.6773 96.9121 22.528C96.7721 22.3693 96.5061 22.262 96.1141 22.206C95.7314 22.15 95.1434 22.122 94.3501 22.122H92.4181V24.334H94.3501ZM112.727 19.336C112.662 20.9133 112.629 22.6073 112.629 24.418C112.629 26.2287 112.662 27.9227 112.727 29.5H109.437V22.164H104.705V29.5H101.415C101.49 27.6893 101.527 25.9953 101.527 24.418C101.527 22.8407 101.49 21.1467 101.415 19.336H112.727ZM120.073 29.64C117.936 29.64 116.363 29.178 115.355 28.254C114.347 27.3207 113.843 26.014 113.843 24.334C113.843 22.6727 114.343 21.3753 115.341 20.442C116.349 19.5087 117.927 19.042 120.073 19.042C122.229 19.042 123.807 19.5087 124.805 20.442C125.813 21.3753 126.317 22.6727 126.317 24.334C126.317 26.0233 125.818 27.33 124.819 28.254C123.821 29.178 122.239 29.64 120.073 29.64ZM120.073 26.784C121.109 26.784 121.856 26.588 122.313 26.196C122.771 25.7947 122.999 25.174 122.999 24.334C122.999 23.5127 122.771 22.9013 122.313 22.5C121.856 22.0987 121.109 21.898 120.073 21.898C119.047 21.898 118.305 22.0987 117.847 22.5C117.39 22.9013 117.161 23.5127 117.161 24.334C117.161 25.1647 117.39 25.7807 117.847 26.182C118.305 26.5833 119.047 26.784 120.073 26.784ZM133.789 19.35C135.646 19.35 136.939 19.6813 137.667 20.344C138.395 20.9973 138.759 21.9213 138.759 23.116C138.759 23.9373 138.614 24.6373 138.325 25.216C138.036 25.7853 137.527 26.2333 136.799 26.56C136.071 26.8773 135.068 27.036 133.789 27.036H130.877V29.5H127.433C127.508 27.6893 127.545 25.9953 127.545 24.418C127.545 22.8407 127.508 21.1467 127.433 19.336H130.877V19.35H133.789ZM132.809 24.334C133.584 24.334 134.162 24.306 134.545 24.25C134.937 24.1847 135.208 24.0727 135.357 23.914C135.516 23.7553 135.595 23.522 135.595 23.214C135.595 22.906 135.52 22.6773 135.371 22.528C135.231 22.3693 134.965 22.262 134.573 22.206C134.19 22.15 133.602 22.122 132.809 22.122H130.877V24.334H132.809ZM148.708 29.5C148.531 28.968 148.293 28.3007 147.994 27.498H143.528L142.828 29.5H139.314L143.234 19.336H148.386L152.334 29.5H148.708ZM147.196 25.314C146.842 24.334 146.478 23.354 146.104 22.374L145.768 21.464C145.442 22.3133 144.961 23.5967 144.326 25.314H147.196ZM165.107 22.276C163.642 22.2293 162.219 22.2013 160.837 22.192V29.5H157.337V22.192C155.947 22.2013 154.528 22.2293 153.081 22.276V19.336H165.107V22.276ZM169.664 19.35L169.426 27.204L172.828 19.35H177.98C177.914 20.9273 177.882 22.6167 177.882 24.418C177.882 26.2287 177.914 27.9227 177.98 29.5H174.382L174.634 21.856L171.246 29.5H166.234C166.308 27.6893 166.346 25.9953 166.346 24.418C166.346 22.85 166.308 21.1607 166.234 19.35H169.664ZM187.303 24.446C189.431 24.446 190.495 25.1227 190.495 26.476C190.495 27.1107 190.35 27.652 190.061 28.1C189.772 28.5387 189.254 28.884 188.507 29.136C187.76 29.3787 186.724 29.5 185.399 29.5H179.099C179.174 27.6893 179.211 25.9953 179.211 24.418C179.211 22.8407 179.174 21.1467 179.099 19.336H182.389V19.35H185.371C186.528 19.35 187.438 19.448 188.101 19.644C188.773 19.8307 189.244 20.106 189.515 20.47C189.795 20.834 189.935 21.296 189.935 21.856C189.935 22.4253 189.734 22.934 189.333 23.382C188.941 23.8207 188.264 24.1753 187.303 24.446ZM182.389 21.898V23.2H185.077C185.656 23.2 186.057 23.1487 186.281 23.046C186.514 22.9433 186.631 22.7567 186.631 22.486C186.631 22.2713 186.51 22.122 186.267 22.038C186.034 21.9447 185.637 21.898 185.077 21.898H182.389ZM185.077 26.938C185.562 26.938 185.931 26.9193 186.183 26.882C186.444 26.8353 186.631 26.7607 186.743 26.658C186.855 26.546 186.911 26.3967 186.911 26.21C186.911 25.9673 186.776 25.7947 186.505 25.692C186.244 25.58 185.768 25.524 185.077 25.524H182.389V26.938H185.077ZM203.341 19.336C203.275 20.9133 203.243 22.6073 203.243 24.418C203.243 26.2287 203.275 27.9227 203.341 29.5H200.051V25.692H194.899V29.5H191.609C191.683 27.6893 191.721 25.9953 191.721 24.418C191.721 22.8407 191.683 21.1467 191.609 19.336H194.899V23.144H200.051V19.336H203.341ZM213.294 29.5C213.117 28.968 212.879 28.3007 212.58 27.498H208.114L207.414 29.5H203.9L207.82 19.336H212.972L216.92 29.5H213.294ZM211.782 25.314C211.428 24.334 211.064 23.354 210.69 22.374L210.354 21.464C210.028 22.3133 209.547 23.5967 208.912 25.314H211.782ZM228.909 19.336C228.844 20.9133 228.811 22.6073 228.811 24.418C228.811 26.2287 228.844 27.9227 228.909 29.5H225.605V26.252H223.547C222.661 27.652 222.012 28.7347 221.601 29.5H217.793L220.061 26.35C220.108 26.266 220.187 26.1493 220.299 26C219.338 25.748 218.657 25.342 218.255 24.782C217.863 24.222 217.667 23.536 217.667 22.724C217.667 21.688 218.041 20.8667 218.787 20.26C219.534 19.6533 220.85 19.35 222.735 19.35H225.605V19.336H228.909ZM225.605 23.634V22.038H223.715C222.913 22.038 222.306 22.0613 221.895 22.108C221.485 22.1547 221.205 22.234 221.055 22.346C220.906 22.458 220.831 22.6167 220.831 22.822C220.831 23.0367 220.911 23.2 221.069 23.312C221.228 23.424 221.508 23.508 221.909 23.564C222.32 23.6107 222.922 23.634 223.715 23.634H225.605ZM71.576 39.642C72.1267 40.09 72.5467 40.5893 72.836 41.14C73.1347 41.6813 73.424 42.3487 73.704 43.142C73.9373 43.786 74.124 44.2387 74.264 44.5H70.148C70.092 44.3413 70.0173 44.066 69.924 43.674C69.8307 43.2447 69.728 42.8853 69.616 42.596C69.5133 42.3067 69.364 42.0547 69.168 41.84C68.8507 41.504 68.454 41.2893 67.978 41.196C67.5113 41.0933 66.8673 41.042 66.046 41.042V44.5H62.56C62.6347 42.6893 62.672 40.9953 62.672 39.418C62.672 37.8407 62.6347 36.1467 62.56 34.336H66.046V37.99C66.1393 37.9993 66.2793 38.004 66.466 38.004C67.922 36.5667 69.0047 35.344 69.714 34.336H74.25L69.896 38.676C70.512 38.9187 71.072 39.2407 71.576 39.642ZM87.1162 34.336C87.0509 35.9133 87.0182 37.6073 87.0182 39.418C87.0182 41.2287 87.0509 42.9227 87.1162 44.5H83.8262V40.692H78.6742V44.5H75.3842C75.4589 42.6893 75.4962 40.9953 75.4962 39.418C75.4962 37.8407 75.4589 36.1467 75.3842 34.336H78.6742V38.144H83.8262V34.336H87.1162ZM91.6658 34.35L91.4278 42.204L94.8298 34.35H99.9818C99.9164 35.9273 99.8838 37.6167 99.8838 39.418C99.8838 41.2287 99.9164 42.9227 99.9818 44.5H96.3838L96.6358 36.856L93.2478 44.5H88.2358C88.3104 42.6893 88.3478 40.9953 88.3478 39.418C88.3478 37.85 88.3104 36.1607 88.2358 34.35H91.6658ZM104.517 44.5H101.101C101.176 42.68 101.213 40.986 101.213 39.418C101.213 37.8407 101.176 36.1467 101.101 34.336H111.013C110.994 35.1013 110.985 35.6847 110.985 36.086C110.985 36.5807 110.99 36.954 110.999 37.206H104.517V44.5ZM120.968 44.5C120.791 43.968 120.553 43.3007 120.254 42.498H115.788L115.088 44.5H111.574L115.494 34.336H120.646L124.594 44.5H120.968ZM119.456 40.314C119.102 39.334 118.738 38.354 118.364 37.374L118.028 36.464C117.702 37.3133 117.221 38.5967 116.586 40.314H119.456ZM131.221 41.098H125.201V38.368H131.221V41.098ZM135.719 42.05C138.752 41.882 141.104 41.6953 142.775 41.49C142.616 41.9753 142.495 42.4887 142.411 43.03C142.327 43.5713 142.285 44.0613 142.285 44.5H132.275L132.261 44.206C132.261 43.2913 132.527 42.498 133.059 41.826C133.6 41.154 134.351 40.5333 135.313 39.964C135.593 39.796 136.031 39.5813 136.629 39.32C137.403 38.984 138.001 38.69 138.421 38.438C138.841 38.1767 139.051 37.92 139.051 37.668C139.051 37.3507 138.92 37.0987 138.659 36.912C138.397 36.7253 137.991 36.632 137.441 36.632C136.834 36.632 136.372 36.786 136.055 37.094C135.747 37.402 135.593 37.794 135.593 38.27C135.593 38.4193 135.607 38.5733 135.635 38.732C134.459 38.5827 133.315 38.48 132.205 38.424C132.205 37.6307 132.41 36.9167 132.821 36.282C133.241 35.638 133.866 35.1293 134.697 34.756C135.537 34.3827 136.563 34.196 137.777 34.196C138.887 34.196 139.811 34.35 140.549 34.658C141.295 34.9567 141.841 35.3393 142.187 35.806C142.541 36.2633 142.719 36.7347 142.719 37.22C142.719 37.78 142.593 38.2607 142.341 38.662C142.098 39.0633 141.743 39.4227 141.277 39.74C140.819 40.048 140.203 40.384 139.429 40.748C139.317 40.804 139.135 40.8693 138.883 40.944C138.631 41.0093 138.472 41.0513 138.407 41.07C137.744 41.266 137.217 41.4293 136.825 41.56C136.433 41.6907 136.064 41.854 135.719 42.05ZM149.76 44.64C147.753 44.64 146.274 44.178 145.322 43.254C144.37 42.33 143.894 41.0467 143.894 39.404C143.894 37.7707 144.37 36.4967 145.322 35.582C146.283 34.658 147.763 34.196 149.76 34.196C151.757 34.196 153.232 34.658 154.184 35.582C155.136 36.4967 155.612 37.7707 155.612 39.404C155.612 41.0467 155.136 42.33 154.184 43.254C153.232 44.178 151.757 44.64 149.76 44.64ZM149.774 42.19C150.633 42.19 151.258 41.9287 151.65 41.406C152.042 40.874 152.238 40.2067 152.238 39.404C152.238 38.6107 152.042 37.9527 151.65 37.43C151.258 36.898 150.633 36.632 149.774 36.632C148.887 36.632 148.243 36.898 147.842 37.43C147.45 37.9527 147.254 38.6107 147.254 39.404C147.254 40.1973 147.45 40.86 147.842 41.392C148.243 41.924 148.887 42.19 149.774 42.19ZM160.246 42.05C163.279 41.882 165.631 41.6953 167.302 41.49C167.143 41.9753 167.022 42.4887 166.938 43.03C166.854 43.5713 166.812 44.0613 166.812 44.5H156.802L156.788 44.206C156.788 43.2913 157.054 42.498 157.586 41.826C158.127 41.154 158.879 40.5333 159.84 39.964C160.12 39.796 160.559 39.5813 161.156 39.32C161.931 38.984 162.528 38.69 162.948 38.438C163.368 38.1767 163.578 37.92 163.578 37.668C163.578 37.3507 163.447 37.0987 163.186 36.912C162.925 36.7253 162.519 36.632 161.968 36.632C161.361 36.632 160.899 36.786 160.582 37.094C160.274 37.402 160.12 37.794 160.12 38.27C160.12 38.4193 160.134 38.5733 160.162 38.732C158.986 38.5827 157.843 38.48 156.732 38.424C156.732 37.6307 156.937 36.9167 157.348 36.282C157.768 35.638 158.393 35.1293 159.224 34.756C160.064 34.3827 161.091 34.196 162.304 34.196C163.415 34.196 164.339 34.35 165.076 34.658C165.823 34.9567 166.369 35.3393 166.714 35.806C167.069 36.2633 167.246 36.7347 167.246 37.22C167.246 37.78 167.12 38.2607 166.868 38.662C166.625 39.0633 166.271 39.4227 165.804 39.74C165.347 40.048 164.731 40.384 163.956 40.748C163.844 40.804 163.662 40.8693 163.41 40.944C163.158 41.0093 162.999 41.0513 162.934 41.07C162.271 41.266 161.744 41.4293 161.352 41.56C160.96 41.6907 160.591 41.854 160.246 42.05ZM174.833 37.346C175.897 37.346 176.789 37.4953 177.507 37.794C178.235 38.0833 178.777 38.48 179.131 38.984C179.495 39.4787 179.677 40.034 179.677 40.65C179.677 42.05 179.187 43.0673 178.207 43.702C177.237 44.3273 175.935 44.64 174.301 44.64C172.929 44.64 171.721 44.4113 170.675 43.954C169.639 43.4873 168.888 42.708 168.421 41.616C168.935 41.5413 169.495 41.42 170.101 41.252C170.717 41.084 171.273 40.9113 171.767 40.734C171.963 41.1353 172.239 41.4293 172.593 41.616C172.948 41.7933 173.424 41.882 174.021 41.882C174.656 41.882 175.179 41.7793 175.589 41.574C176.009 41.3687 176.219 41.084 176.219 40.72C176.219 40.3467 176.037 40.034 175.673 39.782C175.309 39.53 174.754 39.404 174.007 39.404C173.522 39.404 173.079 39.4927 172.677 39.67C172.276 39.838 171.987 40.0807 171.809 40.398H168.575C168.799 39.4367 168.995 38.4007 169.163 37.29C169.341 36.1793 169.448 35.1947 169.485 34.336H179.313V37.052C178.277 36.9867 177.297 36.9493 176.373 36.94C175.459 36.9213 174.175 36.912 172.523 36.912L172.383 37.696C173.093 37.4627 173.909 37.346 174.833 37.346Z" fill="white"/>
</svg>
