<svg width="118" height="76" viewBox="0 0 118 76" fill="none" xmlns="http://www.w3.org/2000/svg">
<g clip-path="url(#clip0_2857_788)">
<path d="M44.861 43.9467H41.1858V25.9258H41.6927C41.8195 25.9258 41.9462 25.9258 42.0729 25.9258C42.1996 25.9258 42.3264 25.9258 42.4531 25.9258C42.7066 25.9258 42.96 25.9258 43.2135 26.0518C43.467 26.0518 43.7204 26.1778 43.9739 26.3038C44.2274 26.4299 44.4808 26.6819 44.6076 26.9339C44.7343 27.06 44.861 27.438 44.861 27.8161V43.9467Z" fill="#FA0056"/>
<path d="M59.3086 38.4018V25.9258H59.6888C59.8155 25.9258 59.9423 25.9258 60.069 25.9258C60.1957 25.9258 60.3225 25.9258 60.4492 25.9258C60.7027 25.9258 60.9561 25.9258 61.2096 26.0518C61.4631 26.0518 61.7165 26.1779 61.97 26.3039C62.2235 26.4299 62.3502 26.6819 62.6037 26.934C62.7304 27.186 62.8571 27.5641 62.8571 28.0682V44.1987H59.6888L51.9582 32.1008V44.0727H48.4097V25.9258C48.5364 25.7998 48.7899 25.7998 49.0433 25.7998C49.2968 25.7998 49.677 25.7998 49.9305 25.7998C50.5641 25.7998 50.9443 25.9258 51.3245 26.0518C51.7047 26.3039 51.9582 26.5559 52.2116 26.934L59.3086 38.4018Z" fill="#FA0056"/>
<path d="M70.588 28.8243H64.885C64.885 28.5722 64.885 28.4462 64.7583 28.3202C64.7583 28.1942 64.7583 27.9421 64.7583 27.8161C64.7583 27.312 64.885 26.934 65.2652 26.4299C65.6454 26.0518 66.2791 25.7998 67.0395 25.7998H79.8394C79.8394 26.1779 79.9661 26.5559 79.9661 26.934C79.9661 27.4381 79.8394 27.8161 79.4592 28.1942C79.079 28.5722 78.5721 28.8243 77.685 28.8243H74.2632V43.9467H70.4612V28.8243H70.588Z" fill="#FA0056"/>
<path d="M91.6248 41.1743C92.5119 41.1743 93.1456 41.4263 93.399 41.8044C93.7792 42.1824 93.906 42.6865 93.906 43.1906C93.906 43.4426 93.906 43.5686 93.906 43.6947C93.906 43.8207 93.906 43.9467 93.906 44.1987H82.1199V25.7998H93.5258C93.5258 26.0518 93.5258 26.1779 93.6525 26.3039C93.6525 26.4299 93.6525 26.5559 93.6525 26.808C93.6525 27.4381 93.5258 27.9421 93.1456 28.1942C92.7654 28.4462 92.2584 28.6983 91.3713 28.6983H86.0486V33.109H91.8782V36.0074H86.0486V41.0482H91.6248V41.1743Z" fill="#FA0056"/>
<path d="M108.734 31.0927C108.734 31.8488 108.607 32.4789 108.481 33.109C108.227 33.6131 107.974 34.1172 107.72 34.6213C107.34 34.9993 106.96 35.3774 106.58 35.7554C106.2 36.0075 105.693 36.2595 105.312 36.3855L109.748 43.8207C109.368 43.9467 108.988 44.0728 108.607 44.1988C108.227 44.3248 107.847 44.3248 107.467 44.3248C106.833 44.3248 106.2 44.1988 105.819 43.9467C105.312 43.6947 104.932 43.1906 104.552 42.5605L101.51 37.1417H99.9897V43.9467H96.1877V25.9259C97.0749 25.7998 97.962 25.7998 98.8491 25.7998C99.7362 25.7998 100.497 25.6738 101.13 25.6738C103.792 25.6738 105.693 26.1779 106.96 27.06C108.101 27.9422 108.734 29.2024 108.734 31.0927ZM104.806 31.3447C104.806 30.2106 104.552 29.4544 103.918 28.9504C103.285 28.5723 102.524 28.3202 101.51 28.3202C101.13 28.3202 100.877 28.3202 100.623 28.3202C100.37 28.3202 100.243 28.3202 99.9897 28.3202V34.6213H101.257C102.398 34.6213 103.158 34.3692 103.792 33.8651C104.552 33.3611 104.806 32.4789 104.806 31.3447Z" fill="#FA0056"/>
<path d="M54.7461 69.1163C54.6194 69.2423 54.4926 69.3683 54.2392 69.4943C53.9857 69.6203 53.6055 69.8724 53.2253 69.9984C52.8451 70.1244 52.3382 70.2504 51.7045 70.3765C51.0709 70.5025 50.4372 70.5025 49.6768 70.5025C48.1561 70.5025 46.8887 70.2504 45.8749 69.7464C44.861 69.2423 43.9739 68.6122 43.2135 67.73C42.4531 66.8479 41.9462 65.8397 41.6927 64.7055C41.3125 63.5714 41.1858 62.3112 41.1858 60.9249C41.1858 59.5387 41.3125 58.2785 41.6927 57.1443C42.0729 56.0102 42.5798 55.002 43.3402 54.1199C44.1006 53.2377 44.9877 52.6076 46.0016 52.1035C47.0155 51.5995 48.2828 51.3474 49.8036 51.3474C50.564 51.3474 51.1976 51.4734 51.7045 51.5995C52.3382 51.7255 52.7184 51.8515 53.2253 52.1035C53.6055 52.2296 53.9857 52.4816 54.2392 52.6076C54.4926 52.8597 54.7461 52.9857 54.8728 53.1117C54.9996 53.2377 55.1263 53.4898 55.253 53.6158C55.3798 53.8678 55.3798 53.9938 55.3798 54.2459C55.3798 54.6239 55.253 55.002 54.9996 55.3801C54.7461 55.7581 54.3659 56.1362 54.1125 56.3882C53.859 56.1362 53.6055 56.0102 53.3521 55.7581C53.0986 55.5061 52.7184 55.3801 52.4649 55.128C52.0847 55.002 51.7045 54.75 51.3243 54.75C50.9442 54.6239 50.4372 54.6239 49.9303 54.6239C49.0432 54.6239 48.2828 54.75 47.6491 55.128C47.0155 55.5061 46.5085 56.0102 46.1283 56.6403C45.7481 57.2704 45.4947 57.9005 45.3679 58.6566C45.2412 59.4127 45.1145 60.1688 45.1145 61.051C45.1145 61.9331 45.2412 62.6892 45.3679 63.4453C45.4947 64.2015 45.8749 64.9576 46.2551 65.4617C46.6353 66.0918 47.1422 66.5959 47.7759 66.8479C48.4095 67.226 49.1699 67.352 50.1838 67.352C50.6907 67.352 51.1976 67.2259 51.5778 67.0999C51.958 66.9739 52.3382 66.8479 52.7184 66.5958C53.0986 66.4698 53.3521 66.2178 53.6055 65.9657C53.859 65.7137 54.1125 65.5877 54.2392 65.4617C54.3659 65.5877 54.4926 65.7137 54.6194 65.9657C54.7461 66.0918 54.8728 66.3438 54.9996 66.5958C55.1263 66.8479 55.253 66.9739 55.3798 67.226C55.5065 67.478 55.5065 67.604 55.5065 67.73C55.5065 67.9821 55.5065 68.1081 55.3798 68.3601C55.1263 68.7382 54.9996 68.9902 54.7461 69.1163Z" fill="#FA0056"/>
<path d="M73.5028 61.0509C73.5028 62.3111 73.376 63.5713 72.9958 64.7055C72.7424 65.8397 72.2354 66.8478 71.4751 67.73C70.8414 68.6121 69.9543 69.2422 68.9404 69.7463C67.9266 70.2504 66.6592 70.5024 65.1385 70.5024C63.6177 70.5024 62.3504 70.2504 61.3365 69.7463C60.3226 69.2422 59.4355 68.4861 58.8019 67.604C58.1682 66.7218 57.6613 65.7137 57.4078 64.5795C57.1543 63.4453 56.9009 62.1851 56.9009 60.9249C56.9009 59.6647 57.0276 58.4045 57.4078 57.2703C57.788 56.1361 58.2949 55.128 58.9286 54.2458C59.5623 53.3637 60.4494 52.7336 61.59 52.2295C62.6038 51.7254 63.8711 51.4734 65.3919 51.4734C66.786 51.4734 68.0533 51.7254 69.0672 52.2295C70.081 52.7336 70.9681 53.3637 71.6018 54.2458C72.2355 55.128 72.7424 56.1361 72.9958 57.2703C73.376 58.5305 73.5028 59.6647 73.5028 61.0509ZM69.7008 61.0509C69.7008 60.1688 69.5741 59.4127 69.4473 58.5305C69.3206 57.7744 69.0672 57.0183 68.687 56.5142C68.3068 55.8841 67.9266 55.506 67.2929 55.128C66.786 54.7499 66.0256 54.6239 65.2652 54.6239C64.3781 54.6239 63.7444 54.7499 63.1107 55.128C62.4771 55.506 62.0969 55.8841 61.7167 56.5142C61.3365 57.1443 61.083 57.7744 60.9563 58.5305C60.8296 59.2866 60.7028 60.1688 60.7028 61.0509C60.7028 61.9331 60.8296 62.6892 60.9563 63.5713C61.083 64.3274 61.3365 65.0836 61.7167 65.7137C62.0969 66.3438 62.4771 66.8478 63.1107 67.2259C63.6177 67.604 64.3781 67.73 65.1385 67.73C65.8989 67.73 66.6592 67.604 67.1662 67.2259C67.6731 66.8478 68.18 66.3438 68.5602 65.7137C68.9404 65.0836 69.1939 64.4535 69.3206 63.5713C69.5741 62.8152 69.7008 61.9331 69.7008 61.0509Z" fill="#FA0056"/>
<path d="M79.4588 51.8516C80.0925 51.8516 80.4727 51.9776 80.8529 52.2296C81.2331 52.4817 81.4865 52.8597 81.6133 53.3638L85.7954 63.0674L89.9776 53.4898C90.231 52.8597 90.6112 52.4817 90.9914 52.2296C91.3716 51.9776 91.7518 51.8516 92.2588 51.8516C92.6389 51.8516 93.0191 51.8516 93.3993 51.9776C93.7795 51.9776 94.033 52.1036 94.1597 52.1036L95.4271 70.1245H91.8786L90.9914 58.1526L87.3162 66.3439H84.1479L80.5994 58.4046L79.839 70.1245H76.2905L77.6846 52.1036C77.8113 52.1036 78.1915 51.9776 78.445 51.9776C78.6984 51.9776 79.0786 51.8516 79.4588 51.8516Z" fill="#FA0056"/>
<path d="M101.384 51.8516C102.017 51.8516 102.397 51.9776 102.778 52.2296C103.158 52.4817 103.411 52.8597 103.538 53.3638L107.72 63.0674L111.902 53.4898C112.156 52.8597 112.536 52.4817 112.916 52.2296C113.296 51.9776 113.677 51.8516 114.184 51.8516C114.564 51.8516 114.944 51.8516 115.324 51.9776C115.704 51.9776 115.958 52.1036 116.085 52.1036L117.352 70.1245H113.803L112.916 58.1526L109.241 66.3439H106.199L102.651 58.4046L101.891 70.1245H98.342L99.7361 52.1036C99.8628 52.1036 100.243 51.9776 100.496 51.9776C100.623 51.9776 101.003 51.8516 101.384 51.8516Z" fill="#FA0056"/>
<path d="M33.0782 26.0048C24.5064 22.5818 14.4488 24.4074 7.59136 31.2535C-1.6662 40.4957 -1.6662 55.4431 7.59136 64.6853C14.4488 71.5314 24.5064 73.3571 33.0782 69.934V58.9802C31.3639 59.7789 29.5352 60.2354 27.5923 60.2354C20.7348 60.2354 15.2489 54.7585 15.2489 47.9124C15.2489 41.0663 20.7348 35.5894 27.5923 35.5894C29.5352 35.5894 31.4782 36.0458 33.0782 36.8445V26.0048Z" fill="#FA0056"/>
<path d="M29.1946 15.0276C32.571 11.6428 32.571 6.04023 29.1946 2.53865C25.8182 -0.846216 20.2296 -0.846216 16.7368 2.53865C13.244 5.92351 13.3604 11.526 16.7368 15.0276C20.2296 18.4125 25.8182 18.4125 29.1946 15.0276Z" fill="#FA0056"/>
</g>
<defs>
<clipPath id="clip0_2857_788">
<rect width="116.703" height="76" fill="white" transform="translate(0.648193)"/>
</clipPath>
</defs>
</svg>
