<svg width="1440" height="464" viewBox="0 0 1440 464" fill="none" xmlns="http://www.w3.org/2000/svg">
<g clip-path="url(#clip0_2860_441)">
<path fill-rule="evenodd" clip-rule="evenodd" d="M455.869 490.76C572.357 330.807 752.289 154.783 944.125 20.1827C1140.95 -117.915 1350.08 -212.256 1515.98 -201.154L1516.12 -203.138C1349.49 -214.289 1139.86 -119.587 942.965 18.5634C752.184 152.424 573.153 327.221 456.463 486.557C456.888 483.473 457.287 480.398 457.66 477.331C459.072 468.614 460.287 459.954 461.312 451.351C490.936 225.645 407.278 40.2529 286.896 -101.612C157.81 -253.733 -13.5344 -355.857 -132.874 -404.106L-133.624 -402.252C-14.5159 -354.096 156.538 -252.142 285.371 -100.318C389.526 22.4248 466.065 177.729 465.299 363.563C463.348 297.053 450.045 234.413 428.217 175.809C394.83 73.4508 337.745 -15.8316 269.75 -91.7982C137.074 -240.031 -37.1748 -337.613 -158.11 -382.841L-158.829 -380.981C-38.1294 -335.841 135.823 -238.421 268.241 -90.4771C326.109 -25.8235 376.039 48.4698 410.129 132.263C375.049 55.7953 325.686 -13.2188 269.027 -74.369C131.393 -222.913 -49.3722 -325.147 -173.401 -375.28L-174.151 -373.426C-50.3143 -323.37 130.177 -221.283 267.56 -73.0098C334.57 -0.687979 391.307 82.5998 426.222 176.186C438.907 215.024 448.169 255.749 453.305 298.348C429.143 148.259 350.5 25.1582 251.637 -72.5726C191.128 -132.388 123.036 -182.71 55.2043 -223.916C-35.7517 -283.084 -126.518 -326.418 -198.335 -353.27L-199.054 -351.41C-141.025 -329.713 -70.6038 -297.236 2.27777 -254.328C-69.1292 -293.107 -137.929 -321.694 -194.697 -340.543L-195.328 -338.644C-124.735 -315.205 -35.5117 -276.683 54.1551 -222.213C122.25 -177.912 190.444 -124.726 250.836 -62.933C337.248 25.4831 407.66 131.486 438.981 254.28C425.472 209.453 406.443 167.103 383.167 127.262C344.631 55.3522 293.008 -7.62923 234.828 -62.1357C90.7776 -197.089 -93.5156 -280.143 -219.106 -318.262L-219.705 -316.362C-94.3115 -278.302 89.6778 -195.374 233.44 -60.6899C277.998 -18.946 318.687 27.7644 352.57 79.6491C321.224 35.0204 284.679 -6.08825 245.032 -43.622C101.367 -179.629 -83.1231 -268.801 -208.94 -308.616L-209.543 -306.709C-83.9438 -266.963 100.26 -177.923 243.657 -42.1697C296.841 8.17951 344.399 64.9402 381.274 127.984C412.874 186.898 435.656 251.815 446.013 322.991C441.467 299.202 435.333 276.085 427.782 253.639C388.57 125.712 310.414 23.002 217.683 -57.3184C99.4084 -159.764 -42.6002 -225.815 -157.85 -261.383C-184.433 -271.244 -209.631 -279.519 -232.836 -286.209L-233.408 -284.301C-219.815 -280.382 -205.537 -275.918 -190.696 -270.909C-205.809 -275.004 -220.32 -278.531 -234.095 -281.504L-234.517 -279.549C-211.06 -274.486 -185.466 -267.815 -158.392 -259.458C-39.3833 -215.295 107.411 -139.334 227.369 -31.7398C315.037 46.8934 388.337 142.387 426.012 254.692C437.154 291.147 445.123 329.653 449.354 370.278C437.786 291.697 411.366 221.298 374.686 158.565C330.321 77.7067 269.349 9.87283 200.962 -46.2016C51.6472 -168.632 -133.057 -235.046 -257.631 -258.691L-257.779 -257.947C-258.435 -258.092 -259.089 -258.237 -259.742 -258.38C-260.187 -258.478 -260.632 -258.575 -261.075 -258.672L-261.501 -256.718C-135.557 -229.273 50.6281 -159.4 201.483 -36.3583C268.267 18.1127 328.115 82.9924 372.751 159.218C407.485 222.441 432.028 293.651 441.963 373.46C412.86 200.576 310.802 69.4839 186.3 -26.5722C31.9629 -145.647 -156.925 -210.941 -284.342 -235.387L-284.735 -233.435C-157.545 -209.033 31.028 -143.84 185.058 -25.0029C320.937 79.8307 429.885 226.365 446.186 423.467C446.207 423.918 446.227 424.37 446.246 424.823C446.3 426.057 446.35 427.294 446.397 428.533C414.92 251.807 300.728 110.53 165.088 3.75229C10.9488 -117.588 -171.011 -194.482 -291.21 -228.331L-291.752 -226.405C-171.752 -192.612 9.95816 -115.822 163.851 5.32384C302.935 114.813 419.197 260.447 446.788 443.234C446.934 452.603 446.886 462.079 446.638 471.663L446.502 471.233C422.552 277.284 297.962 126.405 149.199 15.6889C-8.10189 -101.382 -192.557 -173.649 -314.086 -204.546L-314.596 -202.621C-193.266 -171.774 -9.06552 -99.6052 147.984 17.279C293.743 125.759 416.006 272.67 443.066 460.721C367.055 234.121 190.3 85.0912 15.3951 -12.924C-136.736 -98.1772 -288.176 -145.19 -371.452 -171.042L-371.456 -171.043L-371.468 -171.047L-371.471 -171.048C-389.307 -176.585 -404.015 -181.151 -414.932 -184.915L-418.517 -174.515C-407.351 -170.666 -392.417 -166.028 -374.379 -160.425L-374.377 -160.425L-374.359 -160.419C-290.886 -134.494 -140.937 -87.9219 10.0176 -3.32816C193.551 99.5223 377.529 258.054 444.359 502.788L444.991 505.103L444.93 505.99L445.149 505.682L445.191 505.835L444.806 508.497L445.576 507.663L445.258 509.346L445.982 508.731L446.147 509.338L452.183 506.228C499.413 481.894 565.259 467.534 641.986 463.552C718.632 459.575 805.765 465.973 895.314 482.858C1074.51 516.646 1262.71 592.29 1395.65 709.981L1402.94 701.744C1268.08 582.353 1077.83 506.08 897.353 472.049C807.065 455.025 719.051 448.538 641.416 452.567C606.369 454.386 573.361 458.351 543.171 464.488C565.522 458.314 590.322 453.133 617.072 449.094C688.749 438.272 774.305 435.669 863.964 444.086C1043.31 460.921 1238.9 521.826 1372.67 649.024L1374.05 647.575C1239.83 519.952 1043.74 458.952 864.151 442.094C775.807 433.801 691.418 436.186 620.295 446.593C690.492 435.241 773.421 431.267 860.363 437.349C1041.06 449.989 1238.94 506.056 1375.86 629.413L1377.22 627.941C1239.84 504.171 1041.46 448.023 860.514 435.366C770.028 429.036 683.858 433.578 611.791 445.998C571.934 452.867 536.356 462.151 506.736 473.357C502.908 474.458 499.14 475.6 495.434 476.785C604.742 414.445 754.935 390.298 909.973 408.788C1085.6 429.734 1267.29 505.379 1402.6 641.993L1404.02 640.586C1268.35 503.602 1086.21 427.793 910.209 406.802C790.412 392.515 673.391 403.618 575.761 438.169C672.03 403.038 787.372 389.959 905.981 401.221C1083.02 418.032 1267.18 489.062 1405.83 621.743L1407.23 620.311C1268.21 487.273 1083.6 416.088 906.183 399.242C747.626 384.187 594.701 412.522 485.148 479.017C760.654 269.453 1151.27 204.941 1458.13 341.021L1458.94 339.193C1178.51 214.833 828.455 257.613 559.655 425.221C569.006 418.957 578.492 412.779 588.11 406.701C850.281 250.993 1183.95 209.238 1456.06 321.374L1456.84 319.538C1202.44 214.699 894.479 244.061 641.06 375.058C871.005 245.444 1167.51 178.726 1502.03 320.474L1502.81 318.633C1141.1 165.363 823.754 255.345 586.798 405.167C575.716 411.753 564.763 418.542 553.947 425.531C791.67 260.757 1119.21 150.406 1499.84 299.954L1500.59 298.106C1075.92 131.252 717.196 287.294 475.386 481.8C473.69 483.144 471.998 484.494 470.311 485.849C469.772 486.068 469.236 486.288 468.701 486.508C652.606 301.003 889.845 186.924 1113.71 118.559C1344.46 48.0927 1560.93 26.2168 1689.98 24.7291L1689.96 22.7292C1560.74 24.2189 1344.08 46.1175 1113.13 116.646C889.801 184.846 653.045 298.538 469.086 483.284C470.645 481.548 472.204 479.816 473.764 478.088C653.886 295.579 885.754 179.837 1105.49 108.148C1336.26 32.8569 1553.58 6.18004 1683.36 1.75826L1683.3 -0.228641C1553.36 4.19881 1335.84 30.9026 1104.86 106.26C895.472 174.576 674.954 282.895 498.589 450.904C781.321 145.074 1071.08 -38.5032 1538.94 -139.969L1538.51 -141.924C1056.48 -37.3842 763.246 154.293 472.243 476.788C469.456 479.612 466.682 482.453 463.92 485.309C751.828 155.332 1043.36 -43.0848 1528.36 -158.472L1527.9 -160.405C1051.56 -47.0773 761.58 146.326 478.629 465.558C597.352 313.745 771.165 151.082 954.993 26.4011C1153.17 -108.012 1362.76 -198.132 1527.42 -183.182L1527.6 -185.174C1362.22 -200.19 1152.12 -109.718 953.87 24.7459C760.276 156.051 577.765 329.449 458.88 488.054C457.832 489.259 456.784 490.466 455.736 491.675C455.781 491.37 455.825 491.065 455.869 490.76ZM457.876 366.42C457.747 363.756 457.599 361.099 457.433 358.448C457.564 359.82 457.689 361.194 457.809 362.569C457.835 363.852 457.857 365.135 457.876 366.42ZM458.551 419.584C457.879 430.012 456.963 440.535 455.795 451.154C455.834 453.839 455.856 456.534 455.861 459.237C457.17 445.845 458.061 432.628 458.551 419.584ZM459.561 353.098C458.011 308.566 451.982 265.928 442.191 225.198C460.082 289.303 467.598 357.847 461.416 430.637C462.185 410.814 461.879 391.361 460.572 372.28C460.333 365.841 459.995 359.447 459.561 353.098ZM449.039 302.252C439.937 257.77 425.368 215.542 406.447 175.595C432.467 236.273 449.195 302.731 453.284 375.201C454.927 393.826 455.603 412.83 455.24 432.213L455.258 432.626C458.249 387.392 455.904 343.925 449.039 302.252ZM452.231 414.969C452.127 428.485 451.588 442.2 450.593 456.115C450.348 454.18 450.094 452.25 449.83 450.323C449.477 441.222 448.93 432.224 448.195 423.329C444.875 350.233 429.662 283.826 405.521 223.7C430.663 281.622 447.19 345.27 452.231 414.969ZM331.526 94.0748C294.033 44.6173 250.123 0.733296 202.747 -37.9082C69.1494 -146.874 -92.0546 -214.2 -214.814 -247.353C-93.4532 -217.835 67.1088 -153.365 199.673 -44.6691C248.557 -4.58662 293.63 41.5054 331.526 94.0748ZM252.286 -64.3176C350.024 35.6869 427.429 158.254 451.072 302.204C452.247 307.966 453.33 313.765 454.32 319.602C434.456 160.477 353.421 30.8572 250.231 -71.1502C207.386 -113.504 160.726 -151.092 113.048 -184.048C161.53 -148.64 208.914 -108.696 252.286 -64.3176ZM228.725 -33.2147C300.953 31.5695 363.507 107.833 404.483 195.54C361.749 94.8431 294.227 11.6269 216.374 -55.8066C110.261 -147.718 -15.0246 -210.286 -122.828 -247.781C-10.6491 -202.27 120.02 -130.716 228.725 -33.2147Z" fill="url(#paint0_linear_2860_441)"/>
</g>
<defs>
<linearGradient id="paint0_linear_2860_441" x1="463.533" y1="-292.741" x2="470.13" y2="523.027" gradientUnits="userSpaceOnUse">
<stop stop-color="white" stop-opacity="0"/>
<stop offset="1" stop-color="white"/>
</linearGradient>
<clipPath id="clip0_2860_441">
<rect width="1440" height="464" fill="white"/>
</clipPath>
</defs>
</svg>
