<svg width="70" height="70" viewBox="0 0 70 70" fill="none" xmlns="http://www.w3.org/2000/svg">
<g id="&#208;&#152;&#208;&#186;&#208;&#190;&#208;&#189;&#208;&#186;&#208;&#184; &#208;&#189;&#208;&#190;&#208;&#188;&#208;&#184;&#208;&#189;&#208;&#176;&#209;&#134;&#208;&#184;&#208;&#185;">
<path id="Union" d="M32.0833 55.9999L22.2989 41.9968C22.2128 41.8736 22.1667 41.727 22.1667 41.5767V7.96017C22.1667 7.26303 23.0479 6.95921 23.4775 7.50821L32.6667 19.2499M30.3333 57.7307L13.2724 50.2563C13.0057 50.1395 12.8333 49.8758 12.8333 49.5846V14.1026C12.8333 13.556 13.4097 13.2015 13.8975 13.4481L19.8333 16.4486M29.75 59.4999L7.73333 59.4999C7.32832 59.4999 7 59.1715 7 58.7665V23.0794C7 22.6744 7.32832 22.3461 7.73333 22.3461H10.5M37.9167 55.9999L47.7011 41.9968C47.7872 41.8737 47.8333 41.7271 47.8333 41.5768V7.96022C47.8333 7.26308 46.9521 6.95927 46.5225 7.50826L37.3333 19.2499M39.6667 57.7307L56.7276 50.2564C56.9943 50.1395 57.1667 49.8759 57.1667 49.5847V14.1026C57.1667 13.5561 56.5903 13.2016 56.1025 13.4482L50.1667 16.4487M40.25 59.4999H62.2667C62.6717 59.4999 63 59.1716 63 58.7666V23.0794C63 22.6744 62.6717 22.3461 62.2667 22.3461H59.5" stroke="white" stroke-width="3"/>
</g>
</svg>
